<svg width="69" height="62" viewBox="0 0 69 62" fill="none" xmlns="http://www.w3.org/2000/svg">
<g clip-path="url(#clip0_3709_906)">
<path fill-rule="evenodd" clip-rule="evenodd" d="M14.9074 40.0925C19.2056 47.7162 27.3567 53.0186 34.0558 53.9625C34.544 54.2929 35.0558 54.5663 35.5877 54.7854C29.9885 54.5208 23.7084 50.8314 20.2029 47.6776C11.3064 39.6735 8.86731 28.3884 15.0301 21.0225C21.6629 13.0966 30.7394 13.6018 38.2968 20.2685C38.1622 20.3781 38.0277 20.4891 37.8931 20.602C33.4531 16.5678 27.8503 14.8289 22.6338 16.5082C15.5719 18.7809 11.3019 25.8425 12.3964 32.9768C12.7201 35.0906 13.7165 37.9797 14.9074 40.0925Z" fill="#2E2E2E" stroke="#2E2E2E" stroke-width="1.5" stroke-miterlimit="22.9256"/>
<path fill-rule="evenodd" clip-rule="evenodd" d="M60.8418 40.8075C55.7045 49.9185 45.0643 55.7158 37.976 54.7178C28.5523 53.3908 28.3332 39.3464 31.2341 31.3913C35.0851 20.8274 44.6134 14.4861 53.1163 17.2229C60.1773 19.4958 64.4473 26.5572 63.3537 33.6915C63.0291 35.8053 62.0336 38.6948 60.8418 40.8075ZM35.1733 23.2331C27.8123 31.3158 27.5941 44.5617 31.1369 50.737C36.5606 60.1891 49.7926 53.5693 55.5463 48.3927C64.4437 40.3882 66.8828 29.1035 60.7191 21.7371C53.4053 12.9966 43.1179 14.5095 35.1733 23.2331Z" fill="#2E2E2E" stroke="#2E2E2E" stroke-width="1.5" stroke-miterlimit="22.9256"/>
<path d="M45.8833 38.3748L45.8187 40.0954H39.2832C39.3459 38.6709 39.3777 36.8802 39.3777 34.7234C39.3777 32.744 39.3459 31.1123 39.2832 29.8252H41.4932C41.4314 31.0182 41.3996 32.6523 41.3996 34.7234C41.3996 36.3068 41.3641 37.564 41.2978 38.4931C42.7451 38.4931 44.2723 38.4527 45.8833 38.3748Z" fill="#2E2E2E" stroke="#2E2E2E" stroke-width="0.288" stroke-miterlimit="22.9256"/>
<path d="M27.0361 29.3857L26.9797 31.0791C25.9306 31.0012 24.9415 30.9609 24.016 30.9609C24.0051 31.9544 23.9997 33.064 23.9997 34.2839C23.9997 36.1768 24.0288 37.9674 24.0851 39.656H21.8842C21.9506 37.9836 21.986 36.1931 21.986 34.2839C21.986 33.0854 21.9751 31.9761 21.9533 30.9609C21.2151 30.9609 20.2005 31.0039 18.9087 31.0874L18.9733 29.3857H27.0361Z" fill="#2E2E2E" stroke="#2E2E2E" stroke-width="0.288" stroke-miterlimit="22.9256"/>
<path fill-rule="evenodd" clip-rule="evenodd" d="M63.076 18.4447C63.0015 17.1049 63.4169 15.6235 64.1969 15.0801C64.9078 14.5849 66.9979 14.253 68.0324 14.3912L68.8552 14.3433L67.3661 14.2065C66.217 14.333 64.5706 13.9573 63.9387 13.3243C63.2906 12.6736 62.9505 11.0199 63.0505 9.8335C63.0633 9.51611 63.0778 8.92884 62.906 8.65039L62.8951 9.17146C62.9951 10.6244 62.6651 12.8639 61.7933 13.4904C60.8269 14.1851 58.6487 14.3064 57.2568 14.3281C58.6759 14.3843 60.7396 14.3568 61.7287 15.0938C62.6551 15.7848 62.9642 17.6546 62.8769 19.1657L62.9187 19.9924C63.0815 19.6578 63.0978 18.8917 63.076 18.4447Z" fill="#2E2E2E"/>
</g>
<defs>
<clipPath id="clip0_3709_906">
<rect width="69" height="62" fill="white"/>
</clipPath>
</defs>
</svg>
